<?xml version="1.0"?>
<svg xmlns="http://www.w3.org/2000/svg" viewBox="0 0 16 16">
    <path style="line-height:normal;text-indent:0;text-align:start;text-decoration-line:none;text-decoration-style:solid;text-decoration-color:#000;text-transform:none;block-progression:tb;isolation:auto;mix-blend-mode:normal" d="M 2.5 2 C 2.0900381 2 1.6984009 2.1441855 1.421875 2.4199219 C 1.1453491 2.6956582 1 3.0876653 1 3.5 L 1 4.5 A 0.50005 0.50005 0 0 0 1.5 5 L 3 5 L 3 12.375 C 3 13.199669 3.6105159 14 4.5 14 L 7.7617188 14 C 8.5704696 15.204592 9.94479 16 11.5 16 C 13.979359 16 16 13.979359 16 11.5 C 16 9.5487862 14.741637 7.8970971 13 7.2753906 L 13 3.5 C 13 3.0876653 12.854651 2.6956582 12.578125 2.4199219 C 12.317203 2.1597448 11.952946 2.0211755 11.568359 2.0058594 A 0.50005 0.50005 0 0 0 11.5 2 L 2.5 2 z M 2.5 3 L 10.232422 3 C 10.144686 3.2093287 10 3.3950674 10 3.625 L 10 4 L 2 4 L 2 3.5 C 2 3.3093347 2.0551821 3.2024201 2.1289062 3.1289062 C 2.2026306 3.0553926 2.3109619 3 2.5 3 z M 11.5 3 C 11.689038 3 11.79737 3.0553932 11.871094 3.1289062 C 11.944818 3.2024201 12 3.3093347 12 3.5 L 12 7.0507812 C 11.833538 7.0319923 11.67136 7 11.5 7 C 10.439612 7 9.4752104 7.381117 8.7089844 8 L 5 8 L 5 9 L 7.7929688 9 C 7.5842039 9.3106797 7.4033096 9.6416499 7.2753906 10 L 5 10 L 5 11 L 7.0507812 11 C 7.0319923 11.166462 7 11.32864 7 11.5 C 7 12.028145 7.1071101 12.528582 7.2753906 13 L 4.5 13 C 4.1914841 13 4 12.756331 4 12.375 L 4 5 L 10.5 5 A 0.50005 0.50005 0 0 0 11 4.5 L 11 3.625 C 11 3.2436694 11.191484 3 11.5 3 z M 5 6 L 5 7 L 10 7 L 10 6 L 5 6 z M 11.5 8 C 13.438919 8 15 9.5610811 15 11.5 C 15 13.438919 13.438919 15 11.5 15 C 9.5610811 15 8 13.438919 8 11.5 C 8 9.5610811 9.5610811 8 11.5 8 z M 11 9 L 11 11 L 9 11 L 9 12 L 11 12 L 11 14 L 12 14 L 12 12 L 14 12 L 14 11 L 12 11 L 12 9 L 11 9 z"/>
</svg>
