<?xml version="1.0" encoding="iso-8859-1"?>
<!-- Generator: Adobe Illustrator 19.0.0, SVG Export Plug-In . SVG Version: 6.00 Build 0)  -->
<svg version="1.1" id="Layer_1" xmlns="http://www.w3.org/2000/svg" xmlns:xlink="http://www.w3.org/1999/xlink" x="0px" y="0px"
	 viewBox="0 0 511.999 511.999" style="enable-background:new 0 0 511.999 511.999;" xml:space="preserve">
<g>
	<g>
		<path d="M254.923,38.384c-22.258,0-40.365,18.107-40.365,40.365c0,22.258,18.107,40.365,40.365,40.365
			c22.258,0,40.365-18.107,40.365-40.365C295.288,56.492,277.181,38.384,254.923,38.384z M254.923,102.968
			c-13.355,0-24.219-10.864-24.219-24.219c0-13.355,10.864-24.219,24.219-24.219c13.355,0,24.219,10.864,24.219,24.219
			C279.142,92.104,268.278,102.968,254.923,102.968z"/>
	</g>
</g>
<g>
	<g>
		<rect x="81.085" y="240.209" width="16.146" height="150.696"/>
	</g>
</g>
<g>
	<g>
		<rect x="48.793" y="191.233" width="16.146" height="16.146"/>
	</g>
</g>
<g>
	<g>
		<rect x="113.377" y="191.233" width="16.146" height="16.146"/>
	</g>
</g>
<g>
	<g>
		<rect x="48.793" y="423.735" width="16.146" height="16.146"/>
	</g>
</g>
<g>
	<g>
		<rect x="113.377" y="423.735" width="16.146" height="16.146"/>
	</g>
</g>
<g>
	<g>
		<rect x="247.926" y="240.209" width="16.146" height="150.696"/>
	</g>
</g>
<g>
	<g>
		<rect x="215.634" y="191.233" width="16.146" height="16.146"/>
	</g>
</g>
<g>
	<g>
		<rect x="280.218" y="191.233" width="16.146" height="16.146"/>
	</g>
</g>
<g>
	<g>
		<rect x="215.634" y="423.735" width="16.146" height="16.146"/>
	</g>
</g>
<g>
	<g>
		<rect x="280.218" y="423.735" width="16.146" height="16.146"/>
	</g>
</g>
<g>
	<g>
		<path d="M490.116,433.961c0-18.383-14.256-33.489-32.292-34.869v-167.07c18.036-1.38,32.292-16.486,32.292-34.869
			c0-6.933-2.035-13.395-5.528-18.837h2.837c13.355,0,24.219-10.864,24.219-24.219c0-12.444-9.436-22.723-21.528-24.066v-29.696
			L255.999,0L21.883,100.335v29.696C9.79,131.375,0.355,141.652,0.355,154.097c0,13.355,10.864,24.219,24.219,24.219h2.837
			c-3.493,5.442-5.528,11.904-5.528,18.837c0,18.383,14.256,33.489,32.292,34.869v167.069c-18.036,1.38-32.292,16.486-32.292,34.869
			c0,6.933,2.035,13.395,5.528,18.837H0.355v59.202h511.29v-59.202h-27.056C488.081,447.356,490.116,440.893,490.116,433.961z
			 M473.97,433.961c0,10.386-8.451,18.837-18.837,18.837h-64.584c-10.386,0-18.837-8.451-18.837-18.837s8.451-18.837,18.837-18.837
			c1.077,0,2.137,0.097,3.171,0.274l0.51,0.103c0.063,0.013,0.125,0.028,0.187,0.042c0.425,0.088,0.845,0.188,1.258,0.305
			c0.071,0.02,0.141,0.045,0.212,0.067c0.404,0.118,0.804,0.247,1.196,0.39c0.447,0.167,0.889,0.346,1.32,0.544
			c0.04,0.018,0.078,0.04,0.117,0.058c0.446,0.209,0.884,0.432,1.31,0.675c0.013,0.008,0.025,0.015,0.038,0.023
			c3.18,1.816,5.802,4.538,7.484,7.845c0.041,0.081,0.081,0.161,0.12,0.242c0.18,0.367,0.346,0.743,0.502,1.123
			c0.051,0.123,0.102,0.244,0.15,0.368c0.139,0.359,0.263,0.728,0.38,1.098c0.042,0.132,0.088,0.262,0.127,0.395
			c0.144,0.495,0.273,0.998,0.377,1.51l1.313,6.467h25.04l1.313-6.467c0.104-0.512,0.232-1.015,0.377-1.51
			c0.039-0.133,0.086-0.263,0.127-0.395c0.117-0.37,0.241-0.738,0.38-1.098c0.047-0.124,0.099-0.245,0.15-0.368
			c0.156-0.381,0.322-0.756,0.502-1.123c0.04-0.081,0.08-0.163,0.119-0.242c1.682-3.307,4.303-6.029,7.484-7.845
			c0.013-0.008,0.025-0.015,0.038-0.023c0.426-0.242,0.865-0.465,1.31-0.675c0.04-0.018,0.077-0.04,0.117-0.058
			c0.432-0.199,0.873-0.378,1.32-0.544c0.392-0.144,0.791-0.271,1.196-0.39c0.071-0.021,0.14-0.046,0.212-0.067
			c0.413-0.116,0.834-0.216,1.258-0.305c0.062-0.013,0.125-0.029,0.187-0.042l0.51-0.103c1.034-0.178,2.094-0.274,3.171-0.274
			C465.519,415.124,473.97,423.574,473.97,433.961z M361.094,452.797h-43.348c3.493-5.442,5.528-11.904,5.528-18.837
			c0-18.383-14.257-33.489-32.292-34.869V232.022c18.036-1.38,32.292-16.486,32.292-34.869c0-6.933-2.035-13.395-5.528-18.837
			h43.348c-3.493,5.442-5.528,11.904-5.528,18.837c0,18.383,14.256,33.489,32.292,34.869v167.069
			c-18.036,1.38-32.292,16.486-32.292,34.869C355.565,440.893,357.601,447.355,361.094,452.797z M194.252,452.797h-43.348
			c3.493-5.442,5.528-11.904,5.528-18.837c0-18.383-14.257-33.489-32.292-34.869V232.022c18.036-1.38,32.292-16.486,32.292-34.869
			c0-6.933-2.036-13.395-5.528-18.837h43.348c-3.493,5.442-5.528,11.904-5.528,18.837c0,18.383,14.256,33.489,32.292,34.869v167.069
			c-18.036,1.38-32.292,16.486-32.292,34.869C188.723,440.893,190.759,447.355,194.252,452.797z M271.486,205.662
			c-0.04-0.077-0.078-0.156-0.116-0.235c-0.181-0.369-0.348-0.747-0.505-1.13c-0.049-0.121-0.101-0.241-0.147-0.364
			c-0.14-0.361-0.264-0.73-0.381-1.102c-0.041-0.131-0.088-0.259-0.126-0.392c-0.144-0.495-0.273-0.998-0.377-1.511l-1.313-6.467
			h-25.04l-1.313,6.467c-0.104,0.512-0.233,1.015-0.377,1.511c-0.039,0.132-0.085,0.26-0.126,0.392
			c-0.117,0.372-0.242,0.741-0.381,1.102c-0.047,0.123-0.098,0.242-0.147,0.364c-0.157,0.383-0.324,0.761-0.506,1.13
			c-0.038,0.079-0.076,0.156-0.115,0.234c-1.682,3.31-4.307,6.034-7.49,7.851c-0.011,0.005-0.02,0.012-0.031,0.018
			c-0.428,0.244-0.87,0.468-1.318,0.678c-0.038,0.017-0.073,0.038-0.111,0.055c-0.431,0.198-0.871,0.377-1.316,0.543
			c-0.407,0.15-0.822,0.283-1.243,0.406c-0.055,0.016-0.109,0.036-0.165,0.052c-0.422,0.118-0.85,0.221-1.284,0.311
			c-0.048,0.011-0.097,0.023-0.145,0.032l-0.537,0.109c-1.033,0.177-2.09,0.273-3.166,0.273c-10.386,0-18.837-8.451-18.837-18.837
			s8.451-18.837,18.837-18.837h64.584c10.385,0.001,18.836,8.451,18.836,18.838c0,10.386-8.451,18.837-18.837,18.837
			c-1.075,0-2.132-0.097-3.166-0.273l-0.537-0.109c-0.048-0.01-0.097-0.023-0.145-0.032c-0.434-0.089-0.862-0.193-1.284-0.311
			c-0.056-0.016-0.11-0.036-0.165-0.052c-0.421-0.123-0.835-0.256-1.243-0.406c-0.446-0.166-0.886-0.344-1.316-0.543
			c-0.038-0.017-0.074-0.038-0.112-0.055c-0.448-0.21-0.888-0.434-1.316-0.678c-0.011-0.006-0.021-0.013-0.032-0.019
			C275.791,211.695,273.168,208.972,271.486,205.662z M274.836,229.44v172.234c-8.523,3.533-15.295,10.293-18.837,18.799
			c-3.542-8.507-10.314-15.267-18.837-18.799V229.44c8.523-3.532,15.295-10.292,18.837-18.799
			C259.541,219.147,266.313,225.908,274.836,229.44z M223.707,415.124c1.078,0,2.137,0.097,3.171,0.274l0.51,0.103
			c0.062,0.013,0.125,0.028,0.187,0.042c0.425,0.088,0.845,0.188,1.258,0.305c0.071,0.02,0.141,0.045,0.212,0.067
			c0.404,0.118,0.804,0.247,1.196,0.39c0.447,0.167,0.889,0.346,1.32,0.544c0.04,0.018,0.078,0.04,0.117,0.058
			c0.446,0.209,0.884,0.432,1.31,0.675c0.013,0.008,0.025,0.015,0.038,0.023c3.18,1.816,5.802,4.538,7.484,7.845
			c0.041,0.081,0.081,0.161,0.12,0.242c0.18,0.367,0.346,0.743,0.502,1.123c0.051,0.123,0.102,0.244,0.15,0.368
			c0.139,0.359,0.263,0.728,0.38,1.098c0.042,0.132,0.088,0.262,0.127,0.395c0.144,0.495,0.273,0.998,0.377,1.51l1.313,6.467h25.04
			l1.313-6.467c0.104-0.512,0.232-1.015,0.377-1.51c0.039-0.133,0.086-0.263,0.127-0.395c0.117-0.37,0.241-0.738,0.38-1.098
			c0.047-0.124,0.099-0.245,0.15-0.368c0.156-0.381,0.322-0.756,0.502-1.123c0.04-0.081,0.08-0.163,0.12-0.242
			c1.682-3.307,4.303-6.029,7.484-7.845c0.013-0.008,0.025-0.015,0.038-0.023c0.426-0.242,0.865-0.465,1.31-0.675
			c0.04-0.018,0.077-0.04,0.117-0.058c0.432-0.199,0.873-0.378,1.32-0.544c0.392-0.144,0.791-0.271,1.196-0.39
			c0.071-0.021,0.14-0.046,0.212-0.067c0.413-0.116,0.834-0.216,1.258-0.305c0.063-0.013,0.125-0.029,0.187-0.042l0.51-0.103
			c1.034-0.178,2.094-0.274,3.171-0.274c10.386,0,18.837,8.451,18.837,18.837s-8.451,18.837-18.837,18.837h-64.584
			c-10.386,0-18.836-8.451-18.836-18.837S213.321,415.124,223.707,415.124z M404.004,401.673V229.44
			c8.523-3.532,15.295-10.292,18.837-18.799c3.542,8.507,10.314,15.268,18.837,18.799v172.234
			c-8.523,3.533-15.295,10.293-18.837,18.799C419.299,411.966,412.527,405.206,404.004,401.673z M455.133,215.99
			c-1.075,0-2.132-0.097-3.166-0.273l-0.537-0.109c-0.048-0.01-0.097-0.023-0.145-0.032c-0.434-0.089-0.862-0.193-1.284-0.311
			c-0.056-0.016-0.11-0.036-0.165-0.052c-0.421-0.123-0.835-0.256-1.243-0.406c-0.446-0.166-0.886-0.344-1.316-0.543
			c-0.038-0.017-0.074-0.038-0.112-0.055c-0.448-0.21-0.888-0.434-1.316-0.678c-0.011-0.006-0.022-0.013-0.032-0.019
			c-3.183-1.817-5.806-4.54-7.488-7.85c-0.04-0.077-0.078-0.156-0.116-0.235c-0.181-0.369-0.348-0.747-0.505-1.13
			c-0.049-0.121-0.101-0.241-0.147-0.364c-0.14-0.361-0.264-0.73-0.381-1.102c-0.041-0.131-0.088-0.259-0.126-0.392
			c-0.144-0.495-0.273-0.998-0.377-1.511l-1.313-6.467h-25.04l-1.313,6.467c-0.104,0.512-0.233,1.015-0.377,1.511
			c-0.039,0.132-0.085,0.26-0.126,0.392c-0.117,0.372-0.242,0.741-0.381,1.102c-0.047,0.123-0.098,0.242-0.147,0.364
			c-0.157,0.383-0.324,0.761-0.506,1.13c-0.038,0.079-0.076,0.156-0.115,0.234c-1.682,3.31-4.307,6.034-7.49,7.851
			c-0.011,0.005-0.02,0.012-0.031,0.018c-0.428,0.244-0.87,0.468-1.318,0.678c-0.038,0.017-0.073,0.038-0.111,0.055
			c-0.431,0.198-0.871,0.377-1.316,0.543c-0.407,0.15-0.822,0.283-1.243,0.406c-0.055,0.016-0.109,0.036-0.165,0.052
			c-0.422,0.118-0.85,0.221-1.284,0.311c-0.048,0.011-0.097,0.023-0.145,0.032l-0.537,0.109c-1.033,0.177-2.09,0.273-3.166,0.273
			c-10.386,0-18.837-8.451-18.837-18.837s8.451-18.837,18.837-18.837h64.584c10.385,0.001,18.836,8.451,18.836,18.838
			C473.97,207.539,465.519,215.99,455.133,215.99z M38.029,110.982l217.971-93.416l217.971,93.416v18.896H38.029V110.982z
			 M24.574,162.17c-4.452,0-8.073-3.622-8.073-8.073c0-4.452,3.621-8.073,8.073-8.073h462.852c4.452,0,8.073,3.621,8.073,8.073
			s-3.621,8.073-8.073,8.073h-32.292h-64.584H288.291h-64.584H121.45H56.866H24.574z M38.029,197.153
			c0-10.386,8.451-18.837,18.837-18.837h64.584c10.386,0,18.837,8.451,18.837,18.837s-8.451,18.837-18.837,18.837
			c-1.075,0-2.132-0.097-3.166-0.273l-0.537-0.109c-0.048-0.01-0.097-0.023-0.145-0.032c-0.434-0.089-0.862-0.193-1.284-0.311
			c-0.056-0.016-0.11-0.036-0.165-0.052c-0.421-0.123-0.835-0.256-1.243-0.406c-0.446-0.166-0.886-0.344-1.316-0.543
			c-0.038-0.017-0.074-0.038-0.112-0.055c-0.448-0.21-0.888-0.434-1.316-0.678c-0.011-0.006-0.022-0.013-0.032-0.019
			c-3.183-1.817-5.806-4.54-7.489-7.85c-0.04-0.077-0.078-0.156-0.116-0.235c-0.181-0.369-0.348-0.747-0.505-1.13
			c-0.049-0.121-0.101-0.241-0.147-0.364c-0.14-0.361-0.264-0.73-0.381-1.102c-0.041-0.131-0.088-0.259-0.126-0.392
			c-0.144-0.495-0.273-0.998-0.377-1.511l-1.313-6.467H76.637l-1.313,6.467c-0.104,0.512-0.233,1.015-0.377,1.511
			c-0.039,0.132-0.085,0.26-0.126,0.392c-0.117,0.372-0.242,0.741-0.381,1.102c-0.047,0.123-0.098,0.242-0.147,0.364
			c-0.157,0.383-0.324,0.761-0.506,1.13c-0.038,0.079-0.076,0.156-0.115,0.234c-1.682,3.31-4.307,6.034-7.49,7.851
			c-0.011,0.005-0.02,0.012-0.031,0.018c-0.428,0.244-0.87,0.468-1.318,0.678c-0.038,0.017-0.073,0.038-0.111,0.055
			c-0.431,0.198-0.871,0.377-1.316,0.543c-0.407,0.15-0.822,0.283-1.243,0.406c-0.055,0.016-0.109,0.036-0.165,0.052
			c-0.422,0.118-0.85,0.221-1.284,0.311c-0.048,0.011-0.097,0.023-0.145,0.032l-0.537,0.109c-1.033,0.177-2.09,0.273-3.166,0.273
			C46.478,215.99,38.029,207.539,38.029,197.153z M107.995,229.44v172.234c-8.523,3.533-15.295,10.293-18.837,18.799
			c-3.542-8.507-10.314-15.267-18.837-18.799V229.44c8.523-3.532,15.295-10.292,18.837-18.799
			C92.7,219.147,99.472,225.908,107.995,229.44z M56.866,415.124c1.078,0,2.137,0.097,3.171,0.274l0.51,0.103
			c0.062,0.013,0.125,0.028,0.187,0.042c0.425,0.088,0.845,0.188,1.258,0.305c0.071,0.02,0.141,0.045,0.212,0.067
			c0.404,0.118,0.804,0.247,1.196,0.39c0.447,0.167,0.889,0.346,1.32,0.544c0.04,0.018,0.078,0.04,0.117,0.058
			c0.446,0.209,0.884,0.432,1.31,0.675c0.013,0.008,0.025,0.015,0.038,0.023c3.18,1.816,5.802,4.538,7.484,7.845
			c0.041,0.081,0.081,0.161,0.119,0.242c0.18,0.367,0.346,0.743,0.502,1.123c0.051,0.123,0.102,0.244,0.15,0.368
			c0.139,0.359,0.263,0.728,0.38,1.098c0.042,0.132,0.088,0.262,0.127,0.395c0.144,0.495,0.273,0.998,0.377,1.51l1.313,6.467h25.04
			l1.313-6.467c0.104-0.512,0.232-1.015,0.377-1.51c0.039-0.133,0.086-0.263,0.127-0.395c0.117-0.37,0.241-0.738,0.38-1.098
			c0.047-0.124,0.099-0.245,0.15-0.368c0.156-0.381,0.322-0.756,0.502-1.123c0.04-0.081,0.08-0.163,0.12-0.242
			c1.682-3.307,4.303-6.029,7.484-7.845c0.013-0.008,0.025-0.015,0.038-0.023c0.426-0.242,0.865-0.465,1.31-0.675
			c0.04-0.018,0.078-0.04,0.117-0.058c0.432-0.199,0.873-0.378,1.32-0.544c0.392-0.144,0.791-0.271,1.196-0.39
			c0.071-0.021,0.14-0.046,0.212-0.067c0.413-0.116,0.834-0.216,1.258-0.305c0.062-0.013,0.125-0.029,0.187-0.042l0.51-0.103
			c1.034-0.178,2.094-0.274,3.171-0.274c10.386,0,18.837,8.451,18.837,18.837s-8.451,18.837-18.837,18.837H56.865
			c-10.386,0-18.836-8.451-18.836-18.837S46.479,415.124,56.866,415.124z M495.498,468.944v26.91H16.501v-26.91h40.365h64.584
			h102.258h64.584h102.258h64.584H495.498z"/>
	</g>
</g>
<g>
	<g>
		<rect x="414.768" y="240.209" width="16.146" height="150.696"/>
	</g>
</g>
<g>
	<g>
		<rect x="382.476" y="191.233" width="16.146" height="16.146"/>
	</g>
</g>
<g>
	<g>
		<rect x="447.06" y="191.233" width="16.146" height="16.146"/>
	</g>
</g>
<g>
	<g>
		<rect x="382.476" y="423.735" width="16.146" height="16.146"/>
	</g>
</g>
<g>
	<g>
		<rect x="447.06" y="423.735" width="16.146" height="16.146"/>
	</g>
</g>
<g>
</g>
<g>
</g>
<g>
</g>
<g>
</g>
<g>
</g>
<g>
</g>
<g>
</g>
<g>
</g>
<g>
</g>
<g>
</g>
<g>
</g>
<g>
</g>
<g>
</g>
<g>
</g>
<g>
</g>
</svg>
