<svg width="2875" height="989" viewBox="0 0 2875 989" fill="none" xmlns="http://www.w3.org/2000/svg">
<rect x="3.68077" y="3.68077" width="2867.29" height="980.802" rx="143.55" fill="transperent" stroke="#E84142" stroke-width="0"/>
<path d="M1211.89 643.222H1264.06L1238.39 562.388L1211.89 643.222ZM1214.54 515.42H1263.09L1335.91 720.851H1289.31L1276.06 678.622H1200.31L1186.08 720.851H1141.16L1214.54 515.42Z" fill="#E84142"/>
<path d="M1436.35 568.938H1479.04L1424.22 720.851H1382.23L1327.68 568.938H1372.32L1403.99 680.991L1436.35 568.938Z" fill="#E84142"/>
<path d="M1579.77 646.985C1577.26 648.564 1574.7 649.865 1572.09 650.887C1569.58 651.816 1566.1 652.699 1561.63 653.535L1552.7 655.208C1544.33 656.694 1538.33 658.506 1534.71 660.643C1528.57 664.267 1525.5 669.888 1525.5 677.507C1525.5 684.289 1527.36 689.214 1531.08 692.28C1534.89 695.253 1539.5 696.74 1544.89 696.74C1553.45 696.74 1561.31 694.231 1568.47 689.214C1575.72 684.197 1579.49 675.045 1579.77 661.758V646.985ZM1555.63 628.449C1562.98 627.52 1568.23 626.358 1571.4 624.965C1577.07 622.549 1579.91 618.786 1579.91 613.676C1579.91 607.45 1577.72 603.176 1573.35 600.854C1569.07 598.438 1562.75 597.23 1554.38 597.23C1544.98 597.23 1538.33 599.553 1534.43 604.198C1531.64 607.636 1529.78 612.282 1528.85 618.135H1490.49C1491.32 604.849 1495.04 593.932 1501.65 585.384C1512.15 572.004 1530.2 565.314 1555.77 565.314C1572.42 565.314 1587.21 568.613 1600.13 575.21C1613.06 581.806 1619.52 594.257 1619.52 612.561V682.245C1619.52 687.077 1619.62 692.93 1619.8 699.806C1620.08 705.009 1620.87 708.54 1622.17 710.398C1623.48 712.256 1625.43 713.789 1628.03 714.997V720.851H1584.79C1583.58 717.785 1582.74 714.904 1582.28 712.21C1581.81 709.515 1581.44 706.449 1581.16 703.011C1575.67 708.958 1569.35 714.022 1562.19 718.203C1553.63 723.127 1543.96 725.589 1533.17 725.589C1519.41 725.589 1508.02 721.687 1498.99 713.882C1490.07 705.985 1485.6 694.835 1485.6 680.434C1485.6 661.758 1492.81 648.239 1507.23 639.877C1515.13 635.324 1526.76 632.072 1542.1 630.121L1555.63 628.449Z" fill="#E84142"/>
<path d="M1689.84 720.851H1650.08V515.42H1689.84V720.851Z" fill="#E84142"/>
<path d="M1806.89 646.985C1804.38 648.564 1801.82 649.865 1799.21 650.887C1796.7 651.816 1793.22 652.699 1788.75 653.535L1779.82 655.208C1771.45 656.694 1765.45 658.506 1761.83 660.643C1755.69 664.267 1752.62 669.888 1752.62 677.507C1752.62 684.289 1754.48 689.214 1758.2 692.28C1762.01 695.253 1766.62 696.74 1772.01 696.74C1780.57 696.74 1788.43 694.231 1795.59 689.214C1802.84 684.197 1806.61 675.045 1806.89 661.758V646.985ZM1782.75 628.449C1790.1 627.52 1795.35 626.358 1798.52 624.965C1804.19 622.549 1807.03 618.786 1807.03 613.676C1807.03 607.45 1804.84 603.176 1800.47 600.854C1796.19 598.438 1789.87 597.23 1781.5 597.23C1772.1 597.23 1765.45 599.553 1761.55 604.198C1758.76 607.636 1756.9 612.282 1755.97 618.135H1717.61C1718.44 604.849 1722.16 593.932 1728.77 585.384C1739.27 572.004 1757.32 565.314 1782.89 565.314C1799.54 565.314 1814.33 568.613 1827.25 575.21C1840.18 581.806 1846.64 594.257 1846.64 612.561V682.245C1846.64 687.077 1846.74 692.93 1846.92 699.806C1847.2 705.009 1847.99 708.54 1849.3 710.398C1850.6 712.256 1852.55 713.789 1855.15 714.997V720.851H1811.91C1810.7 717.785 1809.86 714.904 1809.4 712.21C1808.93 709.515 1808.56 706.449 1808.28 703.011C1802.79 708.958 1796.47 714.022 1789.31 718.203C1780.75 723.127 1771.08 725.589 1760.29 725.589C1746.53 725.589 1735.14 721.687 1726.12 713.882C1717.19 705.985 1712.72 694.835 1712.72 680.434C1712.72 661.758 1719.93 648.239 1734.35 639.877C1742.25 635.324 1753.88 632.072 1769.22 630.121L1782.75 628.449Z" fill="#E84142"/>
<path d="M1960.62 565.314C1976.34 565.314 1989.17 569.449 1999.13 577.718C2009.17 585.895 2014.19 599.506 2014.19 618.554V720.851H1973.46V628.449C1973.46 620.458 1972.39 614.326 1970.25 610.052C1966.34 602.247 1958.9 598.345 1947.93 598.345C1934.44 598.345 1925.19 604.059 1920.17 615.487C1917.56 621.527 1916.26 629.239 1916.26 638.623V720.851H1876.64V569.217H1915.01V591.376C1920.12 583.572 1924.96 577.951 1929.51 574.513C1937.7 568.381 1948.07 565.314 1960.62 565.314Z" fill="#E84142"/>
<path d="M2136.12 623.431C2135.38 617.764 2133.47 612.654 2130.4 608.101C2125.94 601.969 2119.01 598.902 2109.62 598.902C2096.22 598.902 2087.06 605.546 2082.14 618.832C2079.53 625.894 2078.23 635.278 2078.23 646.985C2078.23 658.134 2079.53 667.101 2082.14 673.883C2086.88 686.519 2095.81 692.837 2108.92 692.837C2118.22 692.837 2124.82 690.329 2128.73 685.311C2132.63 680.294 2135.01 673.79 2135.84 665.8H2176.44C2175.51 677.878 2171.14 689.307 2163.33 700.085C2150.86 717.459 2132.4 726.147 2107.94 726.147C2083.48 726.147 2065.49 718.899 2053.96 704.405C2042.42 689.911 2036.66 671.096 2036.66 647.96C2036.66 621.852 2043.03 601.55 2055.77 587.056C2068.51 572.562 2086.09 565.314 2108.5 565.314C2127.57 565.314 2143.14 569.588 2155.23 578.136C2167.42 586.684 2174.62 601.783 2176.86 623.431H2136.12Z" fill="#E84142"/>
<path d="M2282.47 565.036C2291.86 565.036 2300.37 566.662 2307.99 569.914C2315.71 573.166 2322.04 578.136 2326.97 584.826C2331.15 590.494 2333.71 596.347 2334.64 602.387C2335.57 608.333 2336.03 618.089 2336.03 631.654V720.851H2295.44V628.449C2295.44 620.272 2294.04 613.676 2291.25 608.658C2287.63 601.597 2280.74 598.066 2270.61 598.066C2260.1 598.066 2252.1 601.597 2246.61 608.658C2241.22 615.627 2238.52 625.615 2238.52 638.623V720.851H2198.9V516.117H2238.52V588.728C2244.29 579.902 2250.94 573.769 2258.47 570.332C2266.1 566.801 2274.1 565.036 2282.47 565.036Z" fill="#E84142"/>
<path d="M2427.55 597.648C2418.35 597.648 2411.18 600.528 2406.07 606.289C2401.05 612.05 2397.89 619.854 2396.58 629.703H2458.38C2457.73 619.204 2454.52 611.26 2448.76 605.871C2443.08 600.389 2436.02 597.648 2427.55 597.648ZM2427.55 564.896C2440.2 564.896 2451.59 567.266 2461.73 572.004C2471.87 576.743 2480.24 584.222 2486.84 594.443C2492.79 603.455 2496.65 613.908 2498.42 625.801C2499.44 632.769 2499.86 642.804 2499.68 655.905H2395.61C2396.16 671.142 2400.95 681.827 2409.98 687.959C2415.46 691.769 2422.07 693.674 2429.78 693.674C2437.97 693.674 2444.62 691.351 2449.73 686.705C2452.52 684.197 2454.99 680.712 2457.13 676.252H2497.72C2496.7 685.265 2492 694.417 2483.63 703.708C2470.61 718.481 2452.38 725.868 2428.95 725.868C2409.6 725.868 2392.54 719.643 2377.75 707.192C2362.96 694.742 2355.57 674.487 2355.57 646.427C2355.57 620.133 2362.22 599.971 2375.52 585.941C2388.91 571.911 2406.26 564.896 2427.55 564.896Z" fill="#E84142"/>
<path d="M1274.07 263.19H1344.51C1358.43 263.19 1369.66 267.129 1378.18 275.007C1386.71 282.814 1390.97 293.816 1390.97 308.011C1390.97 320.218 1387.17 330.865 1379.57 339.949C1371.96 348.963 1360.28 353.47 1344.51 353.47H1295.27V419.584H1274.07V263.19ZM1369.55 308.117C1369.55 296.619 1365.29 288.812 1356.76 284.695C1352.07 282.495 1345.64 281.395 1337.47 281.395H1295.27V335.584H1337.47C1346.99 335.584 1354.7 333.562 1360.6 329.516C1366.56 325.47 1369.55 318.337 1369.55 308.117Z" fill="#E84142"/>
<path d="M1455.98 407.234C1468.69 407.234 1477.4 402.443 1482.08 392.861C1486.84 383.209 1489.22 372.492 1489.22 360.71C1489.22 350.063 1487.52 341.404 1484.11 334.733C1478.71 324.228 1469.4 318.976 1456.19 318.976C1444.47 318.976 1435.94 323.448 1430.61 332.391C1425.29 341.333 1422.62 352.122 1422.62 364.755C1422.62 376.892 1425.29 387.006 1430.61 395.097C1435.94 403.188 1444.4 407.234 1455.98 407.234ZM1456.72 302.262C1471.43 302.262 1483.86 307.159 1494.02 316.953C1504.18 326.748 1509.26 341.156 1509.26 360.177C1509.26 378.56 1504.78 393.749 1495.83 405.743C1486.88 417.738 1472.99 423.736 1454.16 423.736C1438.46 423.736 1426 418.448 1416.76 407.873C1407.53 397.226 1402.91 382.96 1402.91 365.075C1402.91 345.911 1407.77 330.652 1417.51 319.296C1427.24 307.94 1440.31 302.262 1456.72 302.262Z" fill="#E84142"/>
<path d="M1536.65 305.562L1558.6 395.417L1580.87 305.562H1602.4L1624.78 394.884L1648.12 305.562H1667.3L1634.16 419.584H1614.23L1591 331.326L1568.51 419.584H1548.58L1515.66 305.562H1536.65Z" fill="#E84142"/>
<path d="M1728.68 303.007C1736.78 303.007 1744.63 304.923 1752.23 308.756C1759.83 312.518 1765.62 317.415 1769.6 323.448C1773.44 329.197 1776 335.904 1777.28 343.569C1778.41 348.821 1778.98 357.196 1778.98 368.694H1695.33C1695.68 380.263 1698.42 389.561 1703.53 396.588C1708.65 403.543 1716.57 407.021 1727.3 407.021C1737.31 407.021 1745.31 403.721 1751.27 397.12C1754.68 393.287 1757.1 388.851 1758.52 383.812H1777.38C1776.88 388 1775.21 392.684 1772.37 397.865C1769.6 402.975 1766.48 407.163 1763 410.428C1757.17 416.106 1749.96 419.938 1741.36 421.926C1736.75 423.061 1731.52 423.629 1725.7 423.629C1711.49 423.629 1699.45 418.483 1689.57 408.192C1679.7 397.83 1674.76 383.351 1674.76 364.755C1674.76 346.444 1679.73 331.574 1689.68 320.147C1699.63 308.72 1712.63 303.007 1728.68 303.007ZM1759.27 353.47C1758.48 345.166 1756.67 338.53 1753.83 333.562C1748.57 324.335 1739.8 319.721 1727.51 319.721C1718.7 319.721 1711.31 322.915 1705.34 329.303C1699.38 335.62 1696.22 343.676 1695.86 353.47H1759.27Z" fill="#E84142"/>
<path d="M1798.81 305.562H1817.03V325.258C1818.52 321.425 1822.18 316.776 1828 311.311C1833.83 305.775 1840.54 303.007 1848.14 303.007C1848.5 303.007 1849.1 303.042 1849.96 303.113C1850.81 303.184 1852.26 303.326 1854.33 303.539V323.767C1853.19 323.554 1852.12 323.412 1851.13 323.341C1850.2 323.27 1849.17 323.235 1848.04 323.235C1838.38 323.235 1830.95 326.358 1825.77 332.603C1820.58 338.778 1817.99 345.911 1817.99 354.002V419.584H1798.81V305.562Z" fill="#E84142"/>
<path d="M1914.11 303.007C1922.21 303.007 1930.06 304.923 1937.66 308.756C1945.26 312.518 1951.05 317.415 1955.03 323.448C1958.87 329.197 1961.43 335.904 1962.7 343.569C1963.84 348.821 1964.41 357.196 1964.41 368.694H1880.76C1881.11 380.263 1883.85 389.561 1888.96 396.588C1894.08 403.543 1902 407.021 1912.73 407.021C1922.74 407.021 1930.74 403.721 1936.7 397.12C1940.11 393.287 1942.53 388.851 1943.95 383.812H1962.81C1962.31 388 1960.64 392.684 1957.8 397.865C1955.03 402.975 1951.91 407.163 1948.43 410.428C1942.6 416.106 1935.39 419.938 1926.79 421.926C1922.18 423.061 1916.95 423.629 1911.13 423.629C1896.92 423.629 1884.88 418.483 1875 408.192C1865.13 397.83 1860.19 383.351 1860.19 364.755C1860.19 346.444 1865.16 331.574 1875.11 320.147C1885.06 308.72 1898.06 303.007 1914.11 303.007ZM1944.7 353.47C1943.91 345.166 1942.1 338.53 1939.26 333.562C1934 324.335 1925.23 319.721 1912.94 319.721C1904.13 319.721 1896.74 322.915 1890.77 329.303C1884.81 335.62 1881.65 343.676 1881.29 353.47H1944.7Z" fill="#E84142"/>
<path d="M1995.85 363.904C1995.85 376.111 1998.44 386.332 2003.63 394.565C2008.82 402.798 2017.13 406.914 2028.57 406.914C2037.45 406.914 2044.73 403.117 2050.41 395.523C2056.17 387.858 2059.04 376.892 2059.04 362.626C2059.04 348.218 2056.09 337.572 2050.2 330.687C2044.3 323.732 2037.02 320.254 2028.35 320.254C2018.69 320.254 2010.84 323.945 2004.8 331.326C1998.83 338.707 1995.85 349.567 1995.85 363.904ZM2024.73 303.539C2033.47 303.539 2040.79 305.385 2046.68 309.075C2050.09 311.204 2053.96 314.931 2058.3 320.254V262.657H2076.73V419.584H2059.47V403.721C2054.99 410.747 2049.7 415.822 2043.59 418.945C2037.48 422.068 2030.48 423.629 2022.6 423.629C2009.88 423.629 1998.87 418.306 1989.56 407.66C1980.26 396.942 1975.6 382.712 1975.6 364.968C1975.6 348.36 1979.83 333.988 1988.28 321.851C1996.81 309.643 2008.96 303.539 2024.73 303.539Z" fill="#E84142"/>
<path d="M2155.71 262.657H2174.35V319.402C2178.55 313.937 2183.55 309.785 2189.38 306.946C2195.2 304.036 2201.53 302.581 2208.35 302.581C2222.56 302.581 2234.07 307.478 2242.87 317.273C2251.75 326.996 2256.19 341.369 2256.19 360.39C2256.19 378.418 2251.83 393.394 2243.09 405.318C2234.35 417.241 2222.24 423.203 2206.75 423.203C2198.08 423.203 2190.76 421.11 2184.8 416.922C2181.24 414.438 2177.44 410.463 2173.39 404.998V419.584H2155.71V262.657ZM2205.58 406.276C2215.95 406.276 2223.69 402.159 2228.81 393.926C2233.99 385.693 2236.59 374.834 2236.59 361.348C2236.59 349.354 2233.99 339.417 2228.81 331.539C2223.69 323.661 2216.13 319.721 2206.11 319.721C2197.37 319.721 2189.7 322.951 2183.09 329.41C2176.56 335.868 2173.29 346.515 2173.29 361.348C2173.29 372.066 2174.64 380.76 2177.34 387.432C2182.38 399.994 2191.79 406.276 2205.58 406.276Z" fill="#E84142"/>
<path d="M2345.61 305.562H2366.81C2364.11 312.872 2358.11 329.552 2348.8 355.599C2341.84 375.189 2336.02 391.158 2331.33 403.508C2320.24 432.607 2312.43 450.351 2307.88 456.739C2303.34 463.127 2295.52 466.321 2284.44 466.321C2281.74 466.321 2279.64 466.214 2278.15 466.001C2276.73 465.788 2274.95 465.398 2272.82 464.83V447.37C2276.16 448.293 2278.58 448.861 2280.07 449.074C2281.56 449.287 2282.88 449.393 2284.01 449.393C2287.56 449.393 2290.16 448.79 2291.79 447.583C2293.5 446.448 2294.92 445.028 2296.05 443.325C2296.41 442.757 2297.69 439.847 2299.89 434.595C2302.09 429.343 2303.69 425.439 2304.69 422.884L2262.49 305.562H2284.23L2314.81 398.397L2345.61 305.562Z" fill="#E84142"/>
<circle cx="691.985" cy="492.519" r="316.546" fill="#E84142"/>
<path fill-rule="evenodd" clip-rule="evenodd" d="M522.08 635.931H596.338C609.518 635.931 616.107 635.931 622.042 634.167C628.503 632.245 634.413 628.817 639.287 624.165C643.764 619.891 647.033 614.175 653.568 602.74L750.793 432.656C757.234 421.387 760.456 415.751 761.869 409.808C763.407 403.339 763.404 396.6 761.861 390.131C760.442 384.189 757.216 378.557 750.765 367.294L750.764 367.293L713.266 301.823C704.395 286.333 699.959 278.588 694.325 275.71C688.239 272.602 681.026 272.607 674.944 275.725C669.315 278.61 664.89 286.362 656.041 301.865L493.455 586.697L493.452 586.702L493.452 586.702L493.452 586.703C484.731 601.98 480.371 609.618 480.724 615.884C481.105 622.654 484.699 628.837 490.397 632.522C495.67 635.931 504.473 635.931 522.08 635.931ZM775.178 635.931H861.273C879.066 635.931 887.963 635.931 893.252 632.487C898.97 628.765 902.551 622.529 902.883 615.72C903.189 609.42 898.702 601.745 889.726 586.396L846.608 512.665L846.605 512.66C837.757 497.53 833.332 489.963 827.739 487.136C821.694 484.08 814.552 484.084 808.511 487.15C802.923 489.986 798.508 497.56 789.679 512.705L746.703 586.437C737.761 601.776 733.291 609.447 733.604 615.743C733.941 622.546 737.526 628.775 743.24 632.491C748.528 635.931 757.412 635.931 775.178 635.931Z" fill="white"/>
</svg>
